<svg xmlns="http://www.w3.org/2000/svg" version="1.1" xmlns:xlink="http://www.w3.org/1999/xlink" viewBox="0 0 200 200" width="200" height="200"><rect width="200" height="200" fill="url('#gradient')"></rect><defs><linearGradient id="gradient" gradientTransform="rotate(127 0.5 0.5)"><stop offset="0%" stop-color="#0ab0bc"></stop><stop offset="100%" stop-color="#3c0c64"></stop></linearGradient></defs><g><g fill="#df442b" transform="matrix(6.7098653076083,0,0,6.7098653076083,7.639055684952027,149.28759229890557)" stroke="#f5d373" stroke-width="0.2"><path d="M12.24-14.22L12.24-11.57L7.97-11.57L7.97 0L4.54 0L4.54-11.57L0.35-11.57L0.35-14.22L12.24-14.22ZM17.77 0.20L17.77 0.20Q15.34 0.20 13.84-1.25Q12.33-2.71 12.33-5.03L12.33-5.03L12.33-5.30Q12.33-6.92 12.93-8.16Q13.54-9.40 14.69-10.08Q15.84-10.76 17.42-10.76L17.42-10.76Q19.65-10.76 20.94-9.38Q22.23-8.00 22.23-5.53L22.23-5.53L22.23-4.25L15.68-4.25Q15.86-3.36 16.46-2.85Q17.05-2.34 18.00-2.34L18.00-2.34Q19.56-2.34 20.44-3.44L20.44-3.44L21.94-1.66Q21.33-0.81 20.20-0.31Q19.07 0.20 17.77 0.20ZM17.40-8.22L17.40-8.22Q15.96-8.22 15.68-6.31L15.68-6.31L19.00-6.31L19.00-6.56Q19.02-7.35 18.60-7.79Q18.18-8.22 17.40-8.22ZM27.02-10.57L27.02 0L23.72 0L23.72-10.57L27.02-10.57ZM23.53-13.29L23.53-13.29Q23.53-13.99 24.03-14.44Q24.54-14.89 25.35-14.89Q26.16-14.89 26.67-14.44Q27.18-13.99 27.18-13.29Q27.18-12.59 26.67-12.14Q26.16-11.69 25.35-11.69Q24.54-11.69 24.03-12.14Q23.53-12.59 23.53-13.29Z"></path></g></g></svg>